<?xml version="1.0" encoding="utf-8"?>
<!-- Generator: Adobe Illustrator 16.0.0, SVG Export Plug-In . SVG Version: 6.00 Build 0)  -->
<!DOCTYPE svg PUBLIC "-//W3C//DTD SVG 1.1//EN" "http://www.w3.org/Graphics/SVG/1.1/DTD/svg11.dtd">
<svg version="1.1" xmlns="http://www.w3.org/2000/svg" xmlns:xlink="http://www.w3.org/1999/xlink" x="0px" y="0px" width="2153px"
	 height="2152px" viewBox="0 0 2153 2152" enable-background="new 0 0 2153 2152" xml:space="preserve">
<g id="blue_background" display="none">
	
		<ellipse display="inline" fill-rule="evenodd" clip-rule="evenodd" fill="#758599" cx="1076.5" cy="1075.833" rx="1076.5" ry="1075.833"/>
</g>
<g id="silhouette">
	<g id="ARC_25_">
		<g id="XMLID_1_">
			<g>
				<path fill="#A1581C" d="M1842.77,566.17c2.391,0.6,3.86,3.06,3.301,5.45l-16.66,68.08c-0.49,2.01-2.32,3.45-4.36,3.45h-28.399
					c-3.73,0-7.101,2.32-8.36,5.83c-6.26,16.56-12.24,33.15-16.31,50.19c-6.19,25.78-7.95,52.52-9.851,79.24
					c-5.97,83.65-13.42,166.73-31.63,248.07c-9.7,43.48-22.49,86.47-38.87,127.87c-24.75,62.7-57.649,121.96-94.55,178.69
					c-45.061,69.32-96.03,134.9-154.66,192.9c-30.58,30.229-63.26,58.409-97.64,84.279c-15.04,11.32-30.44,22.221-45.83,33.05
					c-7.74,6.25-10.9,16.591-8.021,26.08c0.15,0.49,0.5,0.98,0.92,1.261c0.7,0.43,1.33,0.85,2.04,1.27
					c2.181,1.26,4.5,2.32,6.82,3.37c4.35,2.04,8.78,4.08,13.21,6.04c46.89,19.33,80,62.08,87.1,112.34
					c0.49,3.3-0.909,6.54-3.659,8.51c-20.94,15.11-44.771,25.801-70.011,31.2c-82.319,19.13-166.54,28.61-251.029,28.271
					c-84.53,0.34-168.791-9.141-251.1-28.271c-25.24-5.399-49.1-16.09-70.02-31.2c-2.71-1.97-4.11-5.21-3.66-8.51
					c7.11-50.26,40.25-93.01,87.14-112.34c4.39-1.96,8.79-4,13.21-6.04c2.29-1.05,4.61-2.11,6.79-3.37
					c0.67-0.42,1.37-0.84,2.04-1.27c0.46-0.28,0.77-0.771,0.91-1.261c2.92-9.489-0.24-19.83-7.98-26.08
					c-15.43-10.829-30.82-21.729-45.9-33.05c-34.38-25.87-67.03-54.05-97.61-84.279c-58.63-58-109.59-123.58-154.65-192.9
					c-36.87-56.73-69.81-115.99-94.55-178.69c-16.38-41.399-29.14-84.39-38.88-127.87c-18.17-81.34-25.65-164.42-31.63-248.07
					c-1.9-26.72-3.62-53.46-9.81-79.24c-4.07-17.04-10.08-33.63-16.31-50.19c-1.3-3.51-4.67-5.83-8.43-5.83h-28.33
					c-2.07,0-3.87-1.44-4.36-3.45l-16.66-68.08c-0.07-0.28-0.1-0.56-0.1-0.84c-0.15-2.46,1.75-4.57,4.25-4.71h765.64h765.6
					C1842.2,566.07,1842.49,566.14,1842.77,566.17z M1680.59,804.38c22.99-50.97,37.05-105.52,41.62-161.23
					c-39.16,0.64-78.31,3.27-117.19,7.91c-8.93,43.23-5.06,88.15,11.11,129.23C1639.26,782.93,1661.4,791.2,1680.59,804.38z
					 M536.44,780.29c16.17-41.08,20.03-86,11.1-129.23c-38.91-4.64-77.99-7.27-117.15-7.91c4.57,55.71,18.63,110.26,41.58,161.23
					C491.17,791.2,513.31,782.93,536.44,780.29z"/>
			</g>
			<g>
			</g>
		</g>
	</g>
	<g>
		<ellipse fill-rule="evenodd" clip-rule="evenodd" cx="712.31" cy="923.229" rx="73.303" ry="71.343"/>
		<circle fill-rule="evenodd" clip-rule="evenodd" cx="541.354" cy="1035.226" r="64.266"/>
		<ellipse fill-rule="evenodd" clip-rule="evenodd" cx="741.703" cy="1151.456" rx="108.441" ry="105.542"/>
		<circle fill-rule="evenodd" clip-rule="evenodd" cx="899.69" cy="962.836" r="73.742"/>
		<circle fill-rule="evenodd" clip-rule="evenodd" cx="961.877" cy="1212.656" r="67.168"/>
		<ellipse fill-rule="evenodd" clip-rule="evenodd" cx="1356.603" cy="968.511" rx="100.683" ry="97.991"/>
		<ellipse fill-rule="evenodd" clip-rule="evenodd" cx="1598.454" cy="936.675" rx="99.35" ry="96.694"/>
		<circle fill-rule="evenodd" clip-rule="evenodd" cx="1128.932" cy="942.988" r="74.218"/>
		<circle fill-rule="evenodd" clip-rule="evenodd" cx="1257.468" cy="1186.07" r="69.112"/>
		<circle fill-rule="evenodd" clip-rule="evenodd" cx="1482.935" cy="1164.925" r="69.112"/>
		
			<line fill="none" stroke="#000000" stroke-width="18" stroke-linecap="round" stroke-linejoin="round" stroke-miterlimit="10" x1="725.505" y1="1048.144" x2="715.949" y2="994.486"/>
		
			<line fill="none" stroke="#000000" stroke-width="18" stroke-linecap="round" stroke-linejoin="round" stroke-miterlimit="10" x1="649.826" y1="1096.194" x2="598.078" y2="1065.297"/>
		
			<line fill="none" stroke="#000000" stroke-width="18" stroke-linecap="round" stroke-linejoin="round" stroke-miterlimit="10" x1="800.957" y1="1062.121" x2="845.984" y2="1013.364"/>
		
			<line fill="none" stroke="#000000" stroke-width="18" stroke-linecap="round" stroke-linejoin="round" stroke-miterlimit="10" x1="844.608" y1="1184.823" x2="896.337" y2="1197.912"/>
		
			<line fill="none" stroke="#000000" stroke-width="18" stroke-linecap="round" stroke-linejoin="round" stroke-miterlimit="10" x1="1268.424" y1="1015.832" x2="846.399" y2="1123.892"/>
		
			<line fill="none" stroke="#000000" stroke-width="18" stroke-linecap="round" stroke-linejoin="round" stroke-miterlimit="10" x1="1258.166" y1="947.859" x2="1203.067" y2="946.474"/>
		
			<line fill="none" stroke="#000000" stroke-width="18" stroke-linecap="round" stroke-linejoin="round" stroke-miterlimit="10" x1="1456.904" y1="959.966" x2="1499.859" y2="950.955"/>
		
			<line fill="none" stroke="#000000" stroke-width="18" stroke-linecap="round" stroke-linejoin="round" stroke-miterlimit="10" x1="1411.83" y1="1050.45" x2="1448.674" y2="1104.892"/>
		
			<line fill="none" stroke="#000000" stroke-width="18" stroke-linecap="round" stroke-linejoin="round" stroke-miterlimit="10" x1="1320.227" y1="1059.904" x2="1293.842" y2="1127.299"/>
	</g>
	<g id="Layer_4">
		<path d="M547.54,652.667l4.517,35.331l0.18,26.335l-5.886,34.081l-9.911,33.253c0,0,412.56,22.625,543.56,22.578
			s536.13-23.955,536.13-23.955l-8.616-26.583l-6.416-38.032L1601,679.511l4.02-28.451c0,0-430.353,12.883-525.02,12.883
			S547.54,652.667,547.54,652.667z"/>
		<polygon points="529.41,1291.287 557.911,1336.75 583.834,1374.98 615.148,1417.63 649.826,1460.656 685.099,1500.221 
			718.857,1534.443 755.2,1567.703 844.608,1585.333 912.667,1594.667 987.333,1600 1046,1603.333 1080,1603.333 1116.667,1603.333 
			1177,1601 1237,1596.5 1311.5,1588 1396.507,1568.431 1428.709,1539.22 1468.325,1499.305 1499.104,1464.919 1529.958,1427.251 
			1560.464,1386.614 1586.922,1348.447 1616.686,1302.001 1538.5,1320.5 1445.5,1331.5 1338,1340.5 1230.617,1344.5 1140.5,1346.5 
			1080,1346.5 998.5,1346.5 899.689,1343 785.613,1336 701.5,1328.5 608.98,1314 		"/>
		<path d="M430.39,643.15l3.439,30.303l4.631,26.726l6.379,27.474l8.109,27.57l8.938,25.067l10.083,24.09
			c0,0-12.22,14.787-25.97,44.954s-18.333,47.333-18.333,47.333L416.032,932l-6.573,27.966l-11.354-89.446l-6.664-78.185
			l-5.617-64.683l-7.556-37.543l-18.175-45.913l0-16.196c0,0-0.178-14.43,7.239-22.34s15.467-9.818,18-10.327s15.208-2.167,20,0
			s8.692,4.673,14,18.667S430.39,643.15,430.39,643.15z"/>
		<path d="M1721.994,643.15l-3.439,30.303l-4.631,26.726l-6.379,27.474l-8.109,27.57l-8.938,25.067l-10.083,24.09
			c0,0,12.221,14.787,25.971,44.954s18.332,47.333,18.332,47.333L1736.352,932l6.574,27.966l6.41-43.799l4.943-45.647l4.08-42.761
			l2.583-35.424l5.617-64.683l7.556-37.543l18.175-45.913L1792.289,628c0,0,0.178-14.43-7.238-22.34s-15.467-9.818-18-10.327
			s-15.209-2.167-20,0s-8.691,4.673-14,18.667S1721.994,643.15,1721.994,643.15z"/>
		<path d="M1080,1710c0,0-52.548-1.01-70.333-2.666s-42.667-3.666-61.667-7s-39.696-10.187-54.667-16.333
			s-32.613-13.391-32.613-13.391l-22.04,10.68l-24.334,12.902l-19.235,15.24l-15.179,16.771l-14.282,22.618l-7.069,16.389
			l-6.315,23.836c0,0,4.902,4.954,26.235,14.121s26.282,9.861,34.167,12s19.121,5.433,32.833,7.834s36.167,6.333,36.167,6.333
			L918,1834.75l35.667,3.917l27.333,2.334l32,2.333l29.667,1.667H1080V1710z"/>
		<path d="M1080,1710h40.25l32.75-1.75l26.75-2.25l22.085-2.5l23.165-3.25c0,0,17.438-2.813,26.5-5s21.813-5.688,29.25-10.25
			s13.14-13.12,13.14-13.12l18.228,8.607l20.981,10.452l15.332,10.646l14.716,13.5l11.424,13.663l9.882,15.417l7.379,15.403
			l5.529,16.327l2.993,13.489l-12.354,8.499l-25.645,11.448l-28.688,8.407l-34.717,7.593l-42.283,8.007l-37.334,4.993l-44.666,5
			l-47.334,1.668h-28.666H1080V1710z"/>
	</g>
</g>
</svg>
