<?xml version="1.0" encoding="UTF-8" standalone="no"?>
<svg
   xmlns:dc="http://purl.org/dc/elements/1.1/"
   xmlns:cc="http://creativecommons.org/ns#"
   xmlns:rdf="http://www.w3.org/1999/02/22-rdf-syntax-ns#"
   xmlns:svg="http://www.w3.org/2000/svg"
   xmlns="http://www.w3.org/2000/svg"
   viewBox="0 0 614.17334 188.97333"
   height="188.97333"
   width="614.17334"
   xml:space="preserve"
   id="svg2"
   version="1.1"><metadata
     id="metadata8"><rdf:RDF><cc:Work
         rdf:about=""><dc:format>image/svg+xml</dc:format><dc:type
           rdf:resource="http://purl.org/dc/dcmitype/StillImage" /><dc:title></dc:title></cc:Work></rdf:RDF></metadata><defs
     id="defs6" /><g
     transform="matrix(1.3333333,0,0,-1.3333333,0,188.97333)"
     id="g10"><g
       transform="scale(0.1)"
       id="g12"><path
         id="path14"
         style="fill:#0e2b58;fill-opacity:1;fill-rule:nonzero;stroke:none"
         d="M 4606.31,0 H 0 V 1417.32 H 4606.31 V 0" /><path
         id="path16"
         style="fill:#ffffff;fill-opacity:1;fill-rule:nonzero;stroke:none"
         d="m 1588.35,952.641 c -11.4,-11.399 -29.25,-20.332 -56.06,-20.332 -21.86,0 -42.82,6.781 -56.97,20.945 -18.48,18.484 -17.87,41.887 -17.87,62.216 v 126.28 h 27.73 v -129.36 c 0,-15.71 -0.63,-31.105 11.7,-43.425 8.32,-8.32 21.25,-12.938 36.33,-12.938 15.1,0 26.5,5.235 33.89,12.625 13.86,13.864 12.64,29.571 12.64,64.368 v 108.73 h 27.11 v -104.41 c 0,-38.195 1.23,-64.992 -18.5,-84.699" /><path
         id="path18"
         style="fill:#ffffff;fill-opacity:1;fill-rule:nonzero;stroke:none"
         d="m 1804.82,936.313 -97.01,163.557 0.62,-163.557 h -25.27 v 205.437 h 27.41 l 97.04,-164.164 -0.62,164.164 h 25.24 V 936.313 h -27.41" /><path
         id="path20"
         style="fill:#ffffff;fill-opacity:1;fill-rule:nonzero;stroke:none"
         d="m 1915.12,936.313 v 205.437 h 27.71 V 936.313 h -27.71" /><path
         id="path22"
         style="fill:#ffffff;fill-opacity:1;fill-rule:nonzero;stroke:none"
         d="m 2096.88,936.313 h -30.49 l -70.84,205.437 h 28.64 l 58.2,-177.098 59.77,177.098 h 26.79 l -72.07,-205.437" /><path
         id="path24"
         style="fill:#ffffff;fill-opacity:1;fill-rule:nonzero;stroke:none"
         d="m 2222.78,936.313 v 205.437 h 113.68 v -22.79 h -86.57 v -64.68 h 81.32 v -22.17 h -81.32 v -72.387 h 89.02 v -23.41 h -116.13" /><path
         id="path26"
         style="fill:#ffffff;fill-opacity:1;fill-rule:nonzero;stroke:none"
         d="m 2492.75,1109.1 c -11.08,11.1 -25.55,10.78 -42.19,10.78 h -21.26 v -73.61 h 9.57 c 19.68,0 39.71,-0.61 52.65,12.32 6.47,6.47 10.17,16.02 10.17,25.87 0,11.1 -4.33,20.02 -8.94,24.64 z m 21.88,-172.787 -23.72,53.593 c -14.17,31.724 -20.96,34.504 -48.67,34.504 h -12.94 v -88.097 h -27.1 v 205.437 h 45.57 c 27.43,0 48.68,0.3 65.31,-16.32 10.16,-10.16 16.02,-23.72 16.02,-40.97 0,-14.17 -4.01,-26.17 -12.63,-35.42 -7.39,-8 -19.42,-14.78 -32.95,-16.32 6.77,-0.31 13.53,-4.31 17.55,-8.31 6.16,-6.17 10.47,-16.03 16.01,-28.652 l 26.5,-59.445 h -28.95" /><path
         id="path28"
         style="fill:#ffffff;fill-opacity:1;fill-rule:nonzero;stroke:none"
         d="m 2649.41,932.004 c -36.35,0 -60.68,19.711 -63.14,22.176 l 13.24,19.097 c 3.69,-2.464 23.71,-17.558 48.67,-17.558 25.25,0 40.04,15.094 40.04,33.883 0,22.488 -25.15,33.568 -47.33,44.348 -26.18,12.63 -48.76,26.18 -48.76,56.37 0,32.65 26.47,55.44 64.35,55.44 37.9,0 56.69,-18.79 58.54,-20.94 l -13.88,-17.87 c -2.45,2.15 -18.78,15.4 -42.8,15.4 -22.48,0 -38.5,-11.09 -38.5,-29.56 0,-19.41 18.18,-26.6 38.5,-37.08 18.17,-9.23 58.52,-23.3 58.52,-63.644 0,-33.882 -24.95,-60.062 -67.45,-60.062" /><path
         id="path30"
         style="fill:#ffffff;fill-opacity:1;fill-rule:nonzero;stroke:none"
         d="m 2781.81,936.313 v 205.437 h 27.72 V 936.313 h -27.72" /><path
         id="path32"
         style="fill:#ffffff;fill-opacity:1;fill-rule:nonzero;stroke:none"
         d="M 2951.07,1118.96 V 936.313 h -27.71 v 182.647 h -60.38 v 22.79 h 148.15 v -22.79 h -60.06" /><path
         id="path34"
         style="fill:#ffffff;fill-opacity:1;fill-rule:nonzero;stroke:none"
         d="m 3130.74,1017.63 v -81.317 h -27.41 v 81.317 l -64.99,124.12 h 30.29 l 50.11,-96.66 49.14,96.66 h 27.86 l -65,-124.12" /><path
         id="path36"
         style="fill:#ffffff;fill-opacity:1;fill-rule:nonzero;stroke:none"
         d="m 3425.27,1122.35 c -39.11,0 -64.66,-32.96 -64.66,-83.16 0,-49.901 28.65,-83.163 66.22,-83.163 42.8,0 64.99,36.653 64.99,85.013 0,48.97 -27.42,81.31 -66.55,81.31 z m 0.32,-190.041 c -54.2,0 -93.31,44.05 -93.31,106.261 0,63.45 38.8,107.19 94.87,107.19 54.81,0 93.01,-43.74 93.01,-105.65 0,-64.059 -38.5,-107.801 -94.57,-107.801" /><path
         id="path38"
         style="fill:#ffffff;fill-opacity:1;fill-rule:nonzero;stroke:none"
         d="m 3613.28,1118.96 v -64.68 h 78.85 v -22.17 h -78.85 v -95.797 h -27.41 v 205.437 h 111.19 v -22.79 h -83.78" /><path
         id="path40"
         style="fill:#ffffff;fill-opacity:1;fill-rule:nonzero;stroke:none"
         d="m 1800.38,530.121 c 0,119.453 -56.76,200.184 -154.64,200.184 -106.13,0 -154.38,-97.684 -154.38,-200.184 0,-119.512 56.72,-200.66 154.38,-200.66 106.31,0 154.64,97.906 154.64,200.66 v 0 z m 73.42,2.414 c 0,-131.574 -101.33,-226.863 -228.06,-226.863 -129.02,0 -228.05,96.508 -228.05,222.008 0,131.465 101.46,226.836 228.05,226.836 129.19,0 228.06,-96.434 228.06,-221.981 v 0 0" /><path
         id="path42"
         style="fill:#ffffff;fill-opacity:1;fill-rule:nonzero;stroke:none"
         d="m 3192.9,530.121 c 0,119.453 -56.72,200.184 -154.52,200.184 -106.22,0 -154.45,-97.684 -154.45,-200.184 0,-119.512 56.7,-200.66 154.45,-200.66 106.18,0 154.52,97.906 154.52,200.66 v 0 z m 73.55,2.414 c 0,-131.574 -101.37,-226.863 -228.07,-226.863 -129.01,0 -228.07,96.508 -228.07,222.008 0,131.465 101.42,226.836 228.07,226.836 129.08,0 228.07,-96.434 228.07,-221.981 v 0 0" /><path
         id="path44"
         style="fill:#ffffff;fill-opacity:1;fill-rule:nonzero;stroke:none"
         d="m 3541.64,457.406 c -25.36,36.352 -35.03,47.285 -66.4,47.285 h -32.6 V 359.68 c 0,-12.129 3.62,-18.09 18.1,-20.571 l 49.5,-9.648 v -17.039 h -195.43 v 17.039 l 44.59,9.648 c 14.54,3.692 18.03,8.442 18.03,20.571 v 340.258 c 0,12.136 -4.7,18.238 -18.03,20.644 l -44.59,9.723 v 16.886 h 190.59 c 39.88,0 67.61,-3.582 90.54,-12.089 47.01,-18.106 73.52,-62.95 73.52,-104.942 0,-53.222 -39.74,-97.625 -106.15,-113.379 v -2.461 c 13.33,-5.976 20.52,-14.59 67.61,-76.211 l 60.34,-78.429 c 8.4,-12.129 18.11,-20.571 33.72,-23.02 l 41.09,-7.199 v -17.039 h -104.94 c -12.12,0 -18.18,3.687 -29.01,18.289 l -90.48,126.695 z m -99,71.504 h 54.27 c 82.07,0 99.03,50.41 99.03,100 0,37.141 -15.74,67.461 -54.3,84.395 -20.6,8.476 -39.89,9.66 -66.4,9.66 h -32.6 v -194.055 0" /><path
         id="path46"
         style="fill:#ffffff;fill-opacity:1;fill-rule:nonzero;stroke:none"
         d="m 2690.85,597.465 h 20.52 V 453.707 h -20.52 l -8.49,41.301 c -3.49,15.664 -13.17,21.773 -27.71,21.773 H 2549.71 V 359.68 c 0,-12.129 3.63,-18.09 18.02,-20.571 l 49.58,-9.648 v -17.039 h -195.56 v 17.039 l 44.58,9.648 c 14.56,3.692 18.19,8.442 18.19,20.571 v 340.258 c 0,12.136 -4.86,18.238 -18.19,20.644 l -44.58,9.723 v 16.886 H 2751.2 V 638.656 h -20.46 l -16.95,61.282 c -4.83,17.058 -14.54,23.027 -29,23.027 H 2549.71 V 541.039 h 104.94 c 14.54,0 24.22,5.684 27.71,21.309 l 8.49,35.117 v 0" /><path
         id="path48"
         style="fill:#ffffff;fill-opacity:1;fill-rule:nonzero;stroke:none"
         d="M 3927.81,722.965 V 356.16 c 0,-15.801 3.59,-19.5 19.3,-19.5 h 53.08 c 50.65,0 88.07,6.141 114.63,25.461 44.69,32.688 63.98,89.211 63.98,164.328 0,73.489 -19.29,143.281 -79.64,178.418 -25.46,14.516 -57.95,18.098 -108.64,18.098 h -62.71 z M 3801.05,312.422 v 17.039 l 44.61,9.648 c 14.52,3.692 18.15,8.442 18.15,20.571 v 340.258 c 0,12.136 -4.85,18.238 -18.15,20.644 l -44.61,9.723 v 16.886 h 203.98 c 55.48,0 95.33,-7.156 127.81,-21.777 82.14,-37.586 119.49,-118.281 119.49,-197.734 0,-77.489 -28.85,-149.731 -102.53,-188.571 -33.77,-18.07 -80.82,-26.687 -142.35,-26.687 h -206.4 v 0" /><path
         id="path50"
         style="fill:#ffffff;fill-opacity:1;fill-rule:nonzero;stroke:none"
         d="m 2045.25,329.461 v -17.039 h -155.74 v 17.039 l 38.6,8.43 c 14.48,3.699 25.38,8.418 33.9,19.507 l 130.4,166.59 -130.4,175.95 c -8.52,12.136 -19.42,18.238 -32.67,21.843 l -36.12,8.524 v 16.886 h 191.92 v -16.886 l -41.12,-7.34 c -13.2,-2.383 -11.99,-5.969 -4.68,-15.676 l 96.4,-136.504 h 2.46 l 100.1,134.082 c 7.28,9.676 7.28,14.516 -3.63,16.914 l -38.56,8.524 v 16.886 h 155.59 v -16.886 l -38.53,-8.524 c -14.54,-3.605 -25.45,-8.476 -33.84,-19.363 L 2155.17,546.723 2293.8,359.68 c 8.48,-12.129 19.37,-18.09 32.7,-21.789 l 36.1,-8.43 v -17.039 h -191.94 v 17.039 l 41.2,7.199 c 13.11,2.449 11.88,6.141 4.8,15.828 L 2111.51,499.73 h -2.36 L 2001.76,352.488 c -7.29,-9.687 -8.45,-12.129 4.82,-14.597 l 38.67,-8.43 v 0" /><path
         id="path52"
         style="fill:#ffffff;fill-opacity:1;fill-rule:nonzero;stroke:none"
         d="m 699.465,861.773 c 0,17.836 -6.035,32.223 -19.106,39.899 -8.179,4.808 -19.265,6.375 -32.937,6.375 l -98.945,0.016 V 707.387 h 107.734 c 24.941,0 39.602,-5.614 40.879,-27.989 h 2.39 l -0.015,182.375" /><path
         id="path54"
         style="fill:#ffffff;fill-opacity:1;fill-rule:nonzero;stroke:none"
         d="m 716.711,861.773 c 0,17.836 6.031,32.223 19.102,39.899 8.179,4.808 19.277,6.375 32.925,6.375 l 99.653,0.016 V 707.387 h -108.43 c -24.934,0 -39.602,-5.614 -40.879,-27.989 h -2.383 l 0.012,182.375" /><path
         id="path56"
         style="fill:#ffffff;fill-opacity:1;fill-rule:nonzero;stroke:none"
         d="m 890.266,895.273 c 0,0 0,-199.371 0,-215.093 -15.188,0 -156.45,0 -156.45,0 l -2.144,-5.313 c -2.539,-6.297 -7.152,-12.129 -23.43,-12.129 -16.269,0 -20.871,5.832 -23.418,12.129 l -2.136,5.313 c 0,0 -140.93,0 -156.125,0 0,15.722 0,215.093 0,215.093 h -17 v -5.558 l -11.922,3.66 c -1.746,5.293 -6.68,9.141 -12.551,9.141 -7.324,0 -13.293,-5.953 -13.293,-13.286 0,-7.339 5.969,-13.292 13.293,-13.292 3.047,0 5.824,1.07 8.07,2.808 l 16.403,-5.039 v -16.418 l -11.805,2.117 c -2.028,4.305 -6.254,7.403 -11.328,7.645 -7.321,0.351 -13.559,-5.297 -13.91,-12.629 -0.356,-7.332 5.312,-13.559 12.632,-13.91 3.856,-0.184 7.375,1.32 9.926,3.836 l 14.485,-2.598 v -16.793 l -12.379,0.547 c -2.364,3.672 -6.469,6.117 -11.161,6.117 -7.324,0 -13.289,-5.945 -13.289,-13.281 0,-7.332 5.965,-13.285 13.289,-13.285 4.258,0 8.008,2.047 10.446,5.164 l 13.094,-0.574 v -18.258 l -12.801,-0.461 c -2.43,3.168 -6.211,5.246 -10.508,5.246 -7.316,0 -13.281,-5.953 -13.281,-13.281 0,-7.328 5.965,-13.282 13.281,-13.282 4.648,0 8.734,2.403 11.105,6.028 l 12.204,0.437 v -16.816 l -14.137,-2.426 c -2.406,2.406 -5.735,3.895 -9.403,3.895 -7.324,0 -13.289,-5.95 -13.289,-13.282 0,-7.347 5.965,-13.281 13.289,-13.281 5.282,0 9.813,3.106 11.957,7.574 l 11.583,1.992 v -16.46 l -15.696,-4.793 c -2.246,1.734 -5.019,2.808 -8.074,2.808 -7.332,0 -13.293,-5.945 -13.293,-13.281 0,-7.352 5.961,-13.289 13.293,-13.289 5.867,0 10.801,3.832 12.547,9.129 l 11.223,3.426 v -15.836 l -17.532,-7.555 c -2.172,1.324 -4.746,2.047 -7.476,1.949 -7.321,-0.293 -13.039,-6.484 -12.746,-13.808 0.293,-7.344 6.496,-13.047 13.804,-12.754 6.2,0.254 11.196,4.726 12.422,10.531 l 11.528,4.976 v -15.601 c 0,0 153.699,0 162.632,0 6.899,-11.469 18.559,-17.426 36.047,-17.426 17.512,0 29.153,5.957 36.055,17.426 8.933,0 162.976,0 162.976,0 v 232.101 h -17.007" /><path
         id="path58"
         style="fill:#ffffff;fill-opacity:1;fill-rule:nonzero;stroke:none"
         d="m 601.66,965.07 c -32.754,0 -59.297,-5.093 -59.297,-11.375 0,-6.289 26.543,-11.371 59.297,-11.371 32.735,0 59.278,5.082 59.278,11.371 0,6.282 -26.543,11.375 -59.278,11.375" /><path
         id="path60"
         style="fill:#ffffff;fill-opacity:1;fill-rule:nonzero;stroke:none"
         d="m 683.293,1038.51 -34.23,-24.05 -0.293,-2.44 8.132,-3.66 c 1.614,-0.8 1.633,-2.09 0.813,-2.88 l -21.504,-18.14 -2.051,0.176 -15.222,22.444 c -1.047,1.46 -0.676,2.91 1.16,3.22 l 10.222,1.67 v 2.58 l -26.492,37.45 h -4.363 l -26.496,-37.45 v -2.58 l 10.222,-1.67 c 1.829,-0.31 2.219,-1.76 1.164,-3.22 l -15.234,-22.444 -2.051,-0.176 -20.066,18.14 c -0.82,0.79 -0.813,2.08 0.789,2.88 l 8.145,3.66 -0.293,2.44 -35.649,24.05 -2.891,-1.13 20.93,-63.954 c 10.625,4.769 35.031,8.133 63.606,8.265 28.574,-0.132 52.988,-3.496 63.601,-8.265 l 20.942,63.954 -2.891,1.13" /><path
         id="path62"
         style="fill:#ffffff;fill-opacity:1;fill-rule:nonzero;stroke:none"
         d="m 707.996,536.188 c -32.754,0 -59.297,-5.09 -59.297,-11.379 0,-6.289 26.543,-11.368 59.297,-11.368 32.734,0 59.277,5.079 59.277,11.368 0,6.289 -26.543,11.379 -59.277,11.379" /><path
         id="path64"
         style="fill:#ffffff;fill-opacity:1;fill-rule:nonzero;stroke:none"
         d="m 789.629,609.633 -34.231,-24.063 -0.293,-2.437 8.137,-3.656 c 1.613,-0.801 1.629,-2.09 0.813,-2.872 l -21.504,-18.152 -2.055,0.184 -15.223,22.441 c -1.043,1.469 -0.671,2.91 1.172,3.223 l 10.215,1.664 v 2.574 l -26.504,37.453 h -4.355 l -26.492,-37.453 v -2.574 l 10.222,-1.664 c 1.824,-0.313 2.215,-1.754 1.16,-3.223 l -15.23,-22.441 -2.043,-0.184 -20.078,18.152 c -0.82,0.782 -0.801,2.071 0.801,2.872 l 8.144,3.656 -0.312,2.437 -35.645,24.063 -2.89,-1.129 20.937,-63.969 c 10.625,4.778 35.027,8.145 63.605,8.274 28.575,-0.129 52.977,-3.496 63.602,-8.274 l 20.938,63.969 -2.891,1.129" /><path
         id="path66"
         style="fill:#ffffff;fill-opacity:1;fill-rule:nonzero;stroke:none"
         d="m 814.07,965.07 c -32.742,0 -59.297,-5.093 -59.297,-11.375 0,-6.289 26.555,-11.371 59.297,-11.371 32.739,0 59.282,5.082 59.282,11.371 0,6.282 -26.543,11.375 -59.282,11.375" /><path
         id="path68"
         style="fill:#ffffff;fill-opacity:1;fill-rule:nonzero;stroke:none"
         d="m 895.703,1038.51 -34.226,-24.05 -0.293,-2.44 8.132,-3.66 c 1.614,-0.8 1.629,-2.09 0.813,-2.88 l -21.508,-18.14 -2.039,0.176 -15.234,22.444 c -1.043,1.46 -0.672,2.91 1.164,3.22 l 10.23,1.67 v 2.58 l -26.504,37.45 h -4.363 l -26.492,-37.45 v -2.58 l 10.222,-1.67 c 1.836,-0.31 2.215,-1.76 1.165,-3.22 l -15.239,-22.444 -2.039,-0.176 -20.078,18.38 c -0.809,0.78 -0.809,2.07 0.789,2.88 l 8.164,3.42 -0.308,2.44 -35.657,24.05 -2.882,-1.13 20.929,-63.954 c 10.625,4.769 35.031,8.133 63.606,8.265 28.582,-0.132 52.988,-3.496 63.613,-8.265 l 20.926,63.954 -2.891,1.13" /><path
         id="path70"
         style="fill:#ffffff;fill-opacity:1;fill-rule:nonzero;stroke:none"
         d="m 719.688,1210.67 c 0,-6.71 -5.442,-12.15 -12.161,-12.15 -6.714,0 -12.168,5.44 -12.168,12.15 0,6.72 5.454,12.16 12.168,12.16 6.719,0 12.161,-5.44 12.161,-12.16" /><path
         id="path72"
         style="fill:#ffffff;fill-opacity:1;fill-rule:nonzero;stroke:none"
         d="m 1003.6,1097.32 c -0.35,-6.72 -6.073,-11.87 -12.772,-11.5 -6.719,0.33 -11.851,6.05 -11.519,12.77 0.339,6.68 6.074,11.84 12.769,11.5 6.723,-0.35 11.872,-6.07 11.522,-12.77" /><path
         id="path74"
         style="fill:#0e2b58;fill-opacity:1;fill-rule:nonzero;stroke:none"
         d="m 571.523,855.445 c 0,-3.925 0.977,-4.687 3.094,-4.687 3.813,0 7.668,4.203 7.668,12.043 0,9.504 -4.824,12.16 -8.594,12.16 -1.015,0 -1.589,-0.137 -1.906,-0.313 -0.222,-0.082 -0.262,-1.109 -0.262,-2.207 z m 2.168,21.735 c 5.45,0 9.961,-1.067 12.911,-3.942 2.089,-1.992 3.82,-5.265 3.82,-9.074 0,-11.016 -8.371,-15.746 -18.586,-15.746 h -11.414 v 1.715 c 3.23,0.277 3.582,0.582 3.582,5.359 v 14.606 c 0,4.777 -0.352,5.09 -3.234,5.351 v 1.731 h 12.921" /><path
         id="path76"
         style="fill:#0e2b58;fill-opacity:1;fill-rule:nonzero;stroke:none"
         d="m 602.5,863.906 c 0,-8.015 3.008,-13.855 7.344,-13.855 3.808,0 5.879,3.676 5.879,11.683 0,8.891 -3.184,13.797 -6.993,13.797 -3.398,0 -6.23,-3.886 -6.23,-11.625 z m 21.465,-0.761 c 0,-9.469 -6.477,-15.391 -14.961,-15.391 -8.938,0 -14.734,6.504 -14.734,14.644 0,7.168 4.773,15.442 15.347,15.442 8.098,0 14.348,-5.93 14.348,-14.695" /><path
         id="path78"
         style="fill:#0e2b58;fill-opacity:1;fill-rule:nonzero;stroke:none"
         d="m 663.027,877.18 v -1.731 c -3.359,-0.312 -3.535,-0.488 -3.41,-5.136 l 0.442,-14.821 c 0.136,-4.91 0.214,-5.043 3.41,-5.359 v -1.715 h -13.852 v 1.715 c 3.313,0.316 3.449,0.449 3.41,5.359 l -0.136,15.578 h -0.176 l -8.535,-22.172 h -2.395 l -8.094,20.618 h -0.086 l -0.312,-9.825 c -0.141,-3.8 -0.09,-5.921 0.086,-7.289 0.176,-1.644 1.152,-2.047 4.023,-2.269 v -1.715 h -10.925 v 1.715 c 2.128,0.183 2.957,0.625 3.23,2.269 0.227,1.368 0.481,3.711 0.703,7.739 l 0.488,8.937 c 0.313,5.57 -0.039,6.059 -3.535,6.371 v 1.731 h 10.403 l 7.742,-17.528 6.765,17.528 h 10.754" /><path
         id="path80"
         style="fill:#0e2b58;fill-opacity:1;fill-rule:nonzero;stroke:none"
         d="m 677.402,855.492 c 0,-4.777 0.34,-5.082 3.411,-5.359 v -1.715 h -14.336 v 1.715 c 3.043,0.277 3.394,0.582 3.394,5.359 v 14.606 c 0,4.777 -0.351,5.09 -3.394,5.351 v 1.731 h 14.336 v -1.731 c -3.071,-0.261 -3.411,-0.574 -3.411,-5.351 v -14.606" /><path
         id="path82"
         style="fill:#0e2b58;fill-opacity:1;fill-rule:nonzero;stroke:none"
         d="m 606.133,795.012 h -3.797 l -16.367,20.886 h -0.09 v -8.14 c 0,-4.649 0.176,-7.078 0.351,-8.449 0.235,-1.555 1.415,-2.129 4.336,-2.266 v -1.719 h -11.015 v 1.719 c 1.953,0.098 3.094,0.711 3.32,2.266 0.176,1.371 0.352,3.8 0.352,8.449 v 8.14 c 0,3.274 -0.098,3.856 -0.977,5.09 -0.664,0.926 -1.766,1.231 -3.359,1.367 v 1.727 h 9.785 l 14.726,-18.363 h 0.079 v 5.926 c 0,4.652 -0.164,7.085 -0.34,8.453 -0.227,1.543 -1.418,2.121 -4.336,2.257 v 1.727 h 11.277 v -1.727 c -2.207,-0.089 -3.359,-0.714 -3.574,-2.257 -0.176,-1.368 -0.371,-3.801 -0.371,-8.453 v -16.633" /><path
         id="path84"
         style="fill:#0e2b58;fill-opacity:1;fill-rule:nonzero;stroke:none"
         d="m 624.063,795.012 c -3.055,7.961 -7.208,18.894 -8.809,23.054 -1.445,3.801 -2.344,4.024 -4.473,4.289 v 1.727 h 14.297 v -1.727 l -1.504,-0.171 c -1.64,-0.18 -1.64,-0.579 -1.152,-2.133 0.801,-2.473 4.297,-11.199 5.937,-15.528 1.368,3.758 4.2,12.215 4.903,14.29 0.937,2.707 0.664,3.191 -1.328,3.406 l -1.329,0.136 v 1.727 h 10.723 v -1.727 c -2.539,-0.312 -3.144,-0.535 -4.883,-4.562 -0.254,-0.613 -5.652,-13.754 -8.972,-22.781 h -3.41" /><path
         id="path86"
         style="fill:#0e2b58;fill-opacity:1;fill-rule:nonzero;stroke:none"
         d="m 644.023,804.434 c 0.918,-2.567 3.536,-7.481 7.872,-7.481 2.304,0 4.074,1.512 4.074,4.387 0,2.605 -1.731,4.066 -4.426,5.305 l -0.664,0.32 c -3.621,1.672 -7.742,3.973 -7.742,8.711 0,4.996 3.621,9.07 10.574,9.07 1.367,0 2.793,-0.176 4.07,-0.535 1.008,-0.262 1.723,-0.438 2.297,-0.621 0.176,-1.723 0.488,-3.891 0.977,-6.895 l -1.953,-0.312 c -0.977,2.918 -2.52,6.058 -6.016,6.058 -2.258,0 -3.848,-1.718 -3.848,-3.851 0,-2.207 1.719,-3.488 4.551,-4.777 l 0.977,-0.442 c 4.082,-1.863 7.57,-4.117 7.57,-9.289 0,-5.437 -4.375,-9.422 -11.231,-9.422 -1.769,0 -3.593,0.352 -4.796,0.746 -1.309,0.449 -2.246,0.801 -2.774,1.063 -0.351,2.039 -0.937,4.422 -1.465,7.39 l 1.953,0.575" /><path
         id="path88"
         style="fill:#0e2b58;fill-opacity:1;fill-rule:nonzero;stroke:none"
         d="m 586.465,749.309 c 0,-4.778 0.351,-5.09 3.398,-5.364 v -1.718 h -14.328 v 1.718 c 3.051,0.274 3.41,0.586 3.41,5.364 v 14.601 c 0,4.778 -0.359,5.086 -3.41,5.348 v 1.734 h 14.328 v -1.734 c -3.047,-0.262 -3.398,-0.57 -3.398,-5.348 v -14.601" /><path
         id="path90"
         style="fill:#0e2b58;fill-opacity:1;fill-rule:nonzero;stroke:none"
         d="m 603.984,748.73 c 0,-2.3 0.086,-3.402 0.879,-3.796 0.723,-0.364 1.739,-0.403 3.106,-0.403 1.418,0 3.32,0.129 4.25,1.285 0.703,0.836 1.453,2.028 2.168,4.375 l 1.902,-0.312 c -0.273,-1.68 -1.191,-6.281 -1.601,-7.652 h -21.934 v 1.718 c 3.359,0.274 3.711,0.586 3.711,5.364 v 14.601 c 0,4.778 -0.352,5.086 -3.32,5.348 v 1.734 h 14.375 v -1.734 c -3.184,-0.262 -3.536,-0.57 -3.536,-5.348 v -15.18" /><path
         id="path92"
         style="fill:#0e2b58;fill-opacity:1;fill-rule:nonzero;stroke:none"
         d="m 628.672,748.73 c 0,-2.3 0.098,-3.402 0.898,-3.796 0.703,-0.364 1.719,-0.403 3.086,-0.403 1.414,0 3.321,0.129 4.246,1.285 0.715,0.836 1.457,2.028 2.168,4.375 l 1.907,-0.312 c -0.254,-1.68 -1.192,-6.281 -1.602,-7.652 h -21.941 v 1.718 c 3.367,0.274 3.718,0.586 3.718,5.364 v 14.601 c 0,4.778 -0.351,5.086 -3.32,5.348 v 1.734 h 14.387 v -1.734 c -3.196,-0.262 -3.547,-0.57 -3.547,-5.348 v -15.18" /><path
         id="path94"
         style="fill:#0e2b58;fill-opacity:1;fill-rule:nonzero;stroke:none"
         d="m 649.824,741.914 c -3.066,7.965 -7.219,18.899 -8.808,23.059 -1.465,3.797 -2.344,4.023 -4.473,4.285 v 1.734 h 14.297 v -1.734 l -1.504,-0.168 c -1.641,-0.18 -1.641,-0.578 -1.152,-2.133 0.8,-2.469 4.296,-11.195 5.937,-15.527 1.367,3.761 4.199,12.207 4.902,14.289 0.926,2.707 0.665,3.191 -1.328,3.41 l -1.328,0.129 v 1.734 h 10.711 v -1.734 c -2.527,-0.309 -3.14,-0.528 -4.871,-4.559 -0.266,-0.617 -5.664,-13.761 -8.977,-22.785 h -3.406" /><path
         id="path96"
         style="fill:#0e2b58;fill-opacity:1;fill-rule:nonzero;stroke:none"
         d="m 772.031,876.215 v -1.731 c -3.371,-0.308 -3.554,-0.484 -3.418,-5.132 l 0.442,-14.821 c 0.133,-4.91 0.222,-5.043 3.406,-5.359 v -1.719 h -13.84 v 1.719 c 3.305,0.316 3.449,0.449 3.399,5.359 l -0.133,15.578 h -0.176 l -8.535,-22.175 h -2.395 l -8.093,20.621 h -0.09 l -0.301,-9.825 c -0.149,-3.804 -0.102,-5.921 0.074,-7.292 0.18,-1.641 1.152,-2.043 4.024,-2.266 v -1.719 H 735.48 v 1.719 c 2.118,0.183 2.958,0.625 3.219,2.266 0.227,1.371 0.489,3.714 0.703,7.742 l 0.493,8.937 c 0.308,5.571 -0.04,6.059 -3.54,6.367 v 1.731 h 10.391 l 7.758,-17.524 6.773,17.524 h 10.754" /><path
         id="path98"
         style="fill:#0e2b58;fill-opacity:1;fill-rule:nonzero;stroke:none"
         d="m 786.395,854.531 c 0,-4.777 0.351,-5.086 3.402,-5.359 v -1.719 h -14.328 v 1.719 c 3.054,0.273 3.41,0.582 3.41,5.359 v 14.606 c 0,4.773 -0.356,5.086 -3.41,5.347 v 1.731 h 14.328 v -1.731 c -3.051,-0.261 -3.402,-0.574 -3.402,-5.347 v -14.606" /><path
         id="path100"
         style="fill:#0e2b58;fill-opacity:1;fill-rule:nonzero;stroke:none"
         d="m 819.309,847.141 h -3.789 l -16.379,20.89 h -0.086 v -8.144 c 0,-4.641 0.175,-7.078 0.347,-8.449 0.239,-1.555 1.418,-2.125 4.336,-2.266 v -1.719 h -11.004 v 1.719 c 1.946,0.101 3.086,0.711 3.301,2.266 0.188,1.371 0.36,3.808 0.36,8.449 v 8.144 c 0,3.27 -0.094,3.852 -0.973,5.086 -0.664,0.926 -1.777,1.235 -3.352,1.367 v 1.731 h 9.778 l 14.722,-18.363 h 0.078 v 5.929 c 0,4.649 -0.164,7.078 -0.339,8.449 -0.223,1.543 -1.414,2.122 -4.336,2.254 v 1.731 h 11.281 v -1.731 c -2.207,-0.086 -3.359,-0.711 -3.586,-2.254 -0.164,-1.371 -0.359,-3.8 -0.359,-8.449 v -16.64" /><path
         id="path102"
         style="fill:#0e2b58;fill-opacity:1;fill-rule:nonzero;stroke:none"
         d="m 832.195,858.781 h 5.664 l -2.793,8.449 h -0.132 z m 5.61,-9.609 1.343,0.183 c 1.622,0.215 1.711,0.665 1.133,2.258 l -1.582,4.512 h -7.261 l -1.333,-4.25 c -0.562,-1.91 -0.562,-2.344 1.458,-2.562 l 1.281,-0.141 v -1.719 h -10.293 v 1.719 c 2.246,0.316 2.929,0.496 4.383,4.211 l 8.847,22.875 3.047,0.617 2.996,-8.363 c 1.914,-5.266 3.821,-10.489 5.489,-15 1.425,-3.844 2.23,-4.067 4.398,-4.34 v -1.719 h -13.906 v 1.719" /><path
         id="path104"
         style="fill:#0e2b58;fill-opacity:1;fill-rule:nonzero;stroke:none"
         d="m 771.672,801.438 c 0,-4.774 0.359,-5.09 4.058,-5.36 v -1.723 h -15.464 v 1.723 c 3.535,0.27 3.882,0.586 3.882,5.36 v 19.382 h -0.75 c -2.96,0 -4.168,-0.543 -4.875,-1.336 -0.527,-0.656 -1.05,-1.808 -1.636,-4.289 h -1.86 c 0.188,3.715 0.453,6.774 0.532,9.024 h 1.375 c 0.671,-1.004 1.101,-1.098 2.296,-1.098 h 17.657 c 1.148,0 1.367,0.262 2.09,1.098 h 1.367 c 0.039,-1.856 0.261,-5.614 0.476,-8.887 l -1.941,-0.137 c -0.664,2.653 -1.145,3.809 -1.809,4.563 -0.754,0.801 -2.215,1.062 -4.343,1.062 h -1.055 v -19.382" /><path
         id="path106"
         style="fill:#0e2b58;fill-opacity:1;fill-rule:nonzero;stroke:none"
         d="m 794.844,801.438 c 0,-4.774 0.344,-5.09 3.41,-5.36 v -1.723 h -14.336 v 1.723 c 3.047,0.27 3.395,0.586 3.395,5.36 v 14.601 c 0,4.781 -0.348,5.09 -3.395,5.352 v 1.73 h 14.336 v -1.73 c -3.066,-0.262 -3.41,-0.571 -3.41,-5.352 v -14.601" /><path
         id="path108"
         style="fill:#0e2b58;fill-opacity:1;fill-rule:nonzero;stroke:none"
         d="m 810.168,809.848 c 0,-8.012 3.008,-13.856 7.344,-13.856 3.804,0 5.886,3.676 5.886,11.684 0,8.898 -3.171,13.804 -6.992,13.804 -3.41,0 -6.238,-3.886 -6.238,-11.632 z m 21.465,-0.758 c 0,-9.469 -6.465,-15.395 -14.961,-15.395 -8.93,0 -14.731,6.504 -14.731,14.645 0,7.168 4.77,15.445 15.344,15.445 8.106,0 14.348,-5.937 14.348,-14.695" /><path
         id="path110"
         style="fill:#0e2b58;fill-opacity:1;fill-rule:nonzero;stroke:none"
         d="m 784.734,770.031 v -1.734 c -3.355,-0.309 -3.535,-0.488 -3.418,-5.133 l 0.454,-14.824 c 0.125,-4.906 0.21,-5.043 3.398,-5.356 v -1.718 h -13.852 v 1.718 c 3.325,0.313 3.457,0.45 3.403,5.356 l -0.117,15.582 h -0.176 l -8.559,-22.168 h -2.371 l -8.098,20.613 h -0.093 L 755,752.547 c -0.137,-3.805 -0.09,-5.926 0.09,-7.297 0.176,-1.641 1.133,-2.043 4.019,-2.266 v -1.718 h -10.933 v 1.718 c 2.129,0.188 2.969,0.625 3.242,2.266 0.215,1.371 0.477,3.715 0.691,7.738 l 0.496,8.938 c 0.317,5.574 -0.046,6.062 -3.542,6.371 v 1.734 h 10.402 l 7.742,-17.523 6.77,17.523 h 10.757" /><path
         id="path112"
         style="fill:#0e2b58;fill-opacity:1;fill-rule:nonzero;stroke:none"
         d="m 791.57,762.949 c 0,4.778 -0.347,5.082 -3.3,5.348 v 1.734 h 20.96 c 0.047,-0.761 0.274,-3.992 0.489,-7.304 l -1.946,-0.137 c -0.449,2.168 -0.925,3.402 -1.64,4.113 -0.695,0.754 -2.156,1.024 -4.5,1.024 h -0.754 c -1.691,0 -1.77,0 -1.77,-1.551 v -8.539 h 2.207 c 3.801,0 3.926,0.265 4.375,3.629 h 1.954 v -10.442 h -1.954 c -0.449,3.891 -0.574,4.156 -4.375,4.156 h -2.207 v -7.21 c 0,-2.305 0.079,-3.403 0.879,-3.805 0.715,-0.356 1.723,-0.395 3.098,-0.395 1.769,0 3.723,0.258 4.687,1.317 0.75,0.797 1.504,2.433 2.176,4.566 l 1.938,-0.312 c -0.215,-2.168 -1.133,-6.68 -1.543,-7.875 H 787.82 v 1.718 c 3.403,0.274 3.75,0.586 3.75,5.356 v 14.609" /><path
         id="path114"
         style="fill:#0e2b58;fill-opacity:1;fill-rule:nonzero;stroke:none"
         d="m 821.809,752.594 h 5.664 l -2.793,8.445 h -0.137 z m 5.613,-9.61 1.34,0.188 c 1.621,0.211 1.707,0.656 1.14,2.254 l -1.589,4.512 h -7.258 l -1.336,-4.254 c -0.571,-1.899 -0.571,-2.34 1.465,-2.563 l 1.289,-0.137 v -1.718 h -10.317 v 1.718 c 2.258,0.313 2.922,0.496 4.375,4.215 l 8.86,22.864 3.054,0.625 3.008,-8.364 c 1.906,-5.269 3.789,-10.488 5.473,-15.004 1.426,-3.84 2.222,-4.062 4.39,-4.336 v -1.718 h -13.894 v 1.718" /><path
         id="path116"
         style="fill:#ffffff;fill-opacity:1;fill-rule:nonzero;stroke:none"
         d="m 667.629,376.98 c 0,-6.718 -5.449,-12.16 -12.16,-12.16 -6.719,0 -12.168,5.442 -12.168,12.16 0,6.731 5.449,12.168 12.168,12.168 6.711,0 12.16,-5.437 12.16,-12.168" /><path
         id="path118"
         style="fill:#ffffff;fill-opacity:1;fill-rule:nonzero;stroke:none"
         d="m 787.371,357.352 c 0,-6.723 -5.445,-12.172 -12.168,-12.172 -6.707,0 -12.144,5.449 -12.144,12.172 0,6.707 5.437,12.148 12.144,12.148 6.723,0 12.168,-5.441 12.168,-12.148" /><path
         id="path120"
         style="fill:#ffffff;fill-opacity:1;fill-rule:nonzero;stroke:none"
         d="m 328.176,1020.88 v 0 0" /><path
         id="path122"
         style="fill:#ffffff;fill-opacity:1;fill-rule:nonzero;stroke:none"
         d="m 801.523,1154.15 v 0 0" /><path
         id="path124"
         style="fill:#ffffff;fill-opacity:1;fill-rule:nonzero;stroke:none"
         d="m 824.324,1234.28 v 0 0" /><path
         id="path126"
         style="fill:#ffffff;fill-opacity:1;fill-rule:nonzero;stroke:none"
         d="m 1014.86,999.66 v 0 0" /><path
         id="path128"
         style="fill:#ffffff;fill-opacity:1;fill-rule:nonzero;stroke:none"
         d="m 1148.35,735.723 v 0 0" /><path
         id="path130"
         style="fill:#ffffff;fill-opacity:1;fill-rule:nonzero;stroke:none"
         d="m 1106.67,615.648 v 0 0" /><path
         id="path132"
         style="fill:#ffffff;fill-opacity:1;fill-rule:nonzero;stroke:none"
         d="m 382.387,606.059 c 4.156,-0.02 15.933,-1.153 25.898,-15.332 4.102,-5.821 7.008,-12.696 6.992,-19.891 -0.019,-11.906 -5.82,-18.789 -19.785,-28.613 l -37.054,-26.153 -10.083,14.344 41.493,29.277 c 3.843,2.696 8.961,7.129 8.968,12.825 0.008,3.132 -0.418,5.683 -3.257,9.726 -4.403,6.262 -9.012,6.785 -11.938,6.797 -4.398,0.012 -8.562,-2.648 -17.484,-8.926 l -35.957,-23.449 -9.793,13.938 38.183,24.988 c 10.082,7.101 16.59,10.508 23.817,10.469" /><path
         id="path134"
         style="fill:#ffffff;fill-opacity:1;fill-rule:nonzero;stroke:none"
         d="m 316.395,639.945 50.73,19.903 5.469,-14.215 -76.582,-29.692 -5.422,14.836 39.625,50.457 -51.094,-17.851 -5.453,14.953 77.277,27.019 5.129,-14.023 -39.679,-51.387" /><path
         id="path136"
         style="fill:#ffffff;fill-opacity:1;fill-rule:nonzero;stroke:none"
         d="m 261.352,741.82 81.347,12.379 2.645,-17.316 -81.36,-12.375 -2.632,17.312" /><path
         id="path138"
         style="fill:#ffffff;fill-opacity:1;fill-rule:nonzero;stroke:none"
         d="m 339.797,808.211 -83.426,-25 0.742,17.633 62.582,16.863 -60.918,22.445 0.727,17.145 81.008,-32.078 -0.715,-17.008" /><path
         id="path140"
         style="fill:#ffffff;fill-opacity:1;fill-rule:nonzero;stroke:none"
         d="m 268.227,901.836 13.644,47.941 13.524,-3.847 -8.911,-31.328 18.395,-5.235 8.375,29.422 13.285,-3.769 -8.379,-29.434 20.168,-5.742 9.188,32.277 13.773,-3.91 -13.91,-48.895 -79.152,22.52" /><path
         id="path142"
         style="fill:#ffffff;fill-opacity:1;fill-rule:nonzero;stroke:none"
         d="m 333.141,1019.06 c -4.196,-1.18 -6.371,-4.42 -9.496,-10.02 l -2.707,-4.66 19.96,-10.763 3.364,6.035 c 2.828,5.068 3.449,7.968 2.453,11.488 -0.762,2.68 -3.285,5.5 -5.758,6.89 -2.914,1.62 -5.801,1.61 -7.816,1.03 z m 60.746,-24.908 -24.375,2.153 c -11.543,1.074 -12.66,-1.696 -15.907,-7.52 l -0.968,-1.715 28.929,-15.386 -8.593,-15.219 -72.348,39.605 11.859,20.82 c 5.352,9.59 11.051,19.79 25.536,19.79 9.089,0 21.738,-7.64 21.738,-21.38 0,-2.44 -0.594,-5.01 -1.61,-7.71 3.258,4.69 9.153,5.38 14.497,5.32 2.98,-0.02 5.89,-0.47 8.3,-0.67 l 21.961,-1.93 -9.019,-16.158" /><path
         id="path144"
         style="fill:#ffffff;fill-opacity:1;fill-rule:nonzero;stroke:none"
         d="m 430.332,1156.17 13.992,10.54 49.52,-65.71 -13.985,-10.55 -49.527,65.72" /><path
         id="path146"
         style="fill:#ffffff;fill-opacity:1;fill-rule:nonzero;stroke:none"
         d="m 522.676,1196.97 31.269,-60.64 -15.57,-8.03 -31.27,60.64 -20.062,-10.35 -6.445,12.5 55.597,28.66 6.442,-12.5 -19.961,-10.28" /><path
         id="path148"
         style="fill:#ffffff;fill-opacity:1;fill-rule:nonzero;stroke:none"
         d="m 618.984,1192.57 7.93,-31.85 -16.269,-4.05 -7.942,31.85 -37.098,41.73 17.239,4.3 24.539,-28.71 8.254,36.95 16.531,4.05 -13.184,-54.27" /><path
         id="path150"
         style="fill:#ffffff;fill-opacity:1;fill-rule:nonzero;stroke:none"
         d="m 916.848,1163.01 25.972,-15.46 -7.066,-11.88 -25.969,15.46 -18.055,-30.31 -14.843,8.83 42.105,70.71 42.18,-25.12 -7.188,-12.08 -27.343,16.28 -9.793,-16.43" /><path
         id="path152"
         style="fill:#ffffff;fill-opacity:1;fill-rule:nonzero;stroke:none"
         d="m 1064.74,895.664 22.5,24.758 -32.68,7.726 -5.38,17.196 48.57,-12.696 30.46,35.653 5.65,-18.012 -20.9,-22.828 30.35,-7.309 5.25,-16.836 -45.15,12.094 -33.07,-37.637 -5.6,17.891 v 0" /><path
         id="path154"
         style="fill:#ffffff;fill-opacity:1;fill-rule:nonzero;stroke:none"
         d="m 1143.46,837.008 -19.09,-1.539 2.03,-30.395 -13.79,-0.922 -2.03,30.157 -35.2,-2.375 -1.19,16.531 82.15,6.723 3.28,-49.485 -14.04,-0.937 -2.12,32.242 v 0" /><path
         id="path156"
         style="fill:#ffffff;fill-opacity:1;fill-rule:nonzero;stroke:none"
         d="m 995.305,421.48 c -78.91,-27.82 -152.602,-26.039 -215.625,-12.152 2.008,26.985 12.058,56.887 28.687,61.391 141.75,42.976 245.223,174.597 245.223,329.914 0,190.094 -154.985,344.757 -345.477,344.757 -190.5,0 -345.484,-154.663 -345.484,-344.757 0,-103.832 47.57,-202.621 128.012,-267.817 -18.848,-9.07 -34.934,-22.91 -46.786,-39.882 -5.664,3.937 -11.117,8.007 -16.214,12.187 l -3.223,-3.23 c 3.504,-4.231 8.695,-9.661 15.016,-15.774 -10.797,-17.937 -17.075,-38.863 -17.075,-61.269 0,-1.543 0.176,-3.035 0.235,-4.559 -120.598,90.652 -191.422,232.703 -190.188,384.203 1.071,131.789 54.719,253.928 151.074,343.918 89.426,83.52 206.09,128.97 328.5,127.97 262.305,-2.12 473.99,-217.28 471.86,-479.618 C 1182.63,647.789 1113.94,511.41 995.305,421.48 Z M 719.426,309.078 c -65.676,0 -147.656,22.332 -203.988,55.551 -16.821,9.93 -36.875,28.371 -36.875,59.867 0,8.184 1.57,15.996 4.304,23.223 21.281,-17.52 43.086,-33.789 56.86,-41.348 3.242,-1.769 5.117,-2.641 8.886,-2.641 9.043,0 16.387,7.36 16.387,16.442 0,6.941 -3.77,12.566 -10,15.281 -11.809,5.18 -36.293,15.313 -62.832,28.969 11.93,15.555 30.574,25.625 51.582,25.625 9.648,0 18.945,-2.074 27.629,-6.164 l 17.93,-10.457 c 57,-34.817 202.695,-123.778 379.246,-77.567 -66.692,-58.25 -148.496,-86.781 -249.129,-86.781 z m 54.48,-41.547 c -18.906,0 -32.937,-14.742 -32.937,-32.953 0,-21.238 14.859,-34.027 34.019,-34.027 2.383,0 4.707,0.277 6.953,0.738 -5.711,-26.48 -37.007,-55.148 -74.722,-67.98 -37.063,12.832 -68.879,41.5 -74.582,67.98 2.246,-0.461 4.57,-0.738 6.953,-0.738 19.148,0 34.015,12.789 34.015,34.027 0,18.211 -14.027,32.953 -32.941,32.953 4.766,8.758 10.176,19.571 14.18,30.891 22.258,-3.82 44.172,-5.91 64.582,-5.91 16.465,0 32.476,0.847 48.125,2.398 2.105,-8.058 7.183,-23.5 8.535,-27.519 -0.688,0.078 -1.391,0.14 -2.18,0.14 z M 542.852,528.266 c 34.511,0 66.836,-17.715 85.781,-46.102 -16.66,4.149 -33.028,9.59 -48.977,16.387 l -0.047,-0.098 -0.468,0.262 c -11.114,5.254 -23.028,7.914 -35.391,7.914 -27.488,0 -51.816,-13.457 -66.852,-34.047 -6.293,3.496 -12.574,7.172 -18.746,11.016 18.618,26.953 49.621,44.668 84.7,44.668 z m 130.351,-70.672 c -2.715,-2.395 -4.98,-5.086 -6.824,-7.989 -10.539,4.461 -30.852,13.954 -37.441,17.918 10.417,-3.359 33.707,-8.886 44.265,-9.929 z m 104.91,5.39 c -8.496,-13.703 -13.711,-31.515 -15.508,-49.543 -30.039,7.872 -57.351,18.262 -81.304,29.122 3.316,6.933 11.094,13.363 24.336,13.363 0.84,0 1.648,-0.063 2.476,-0.063 23.977,0 47.383,2.461 70,7.121 z m -70,9.442 c -19.273,0 -38.258,1.75 -56.922,5.019 -20.105,40.957 -62.519,67.383 -108.339,67.383 -11.743,0 -23.067,-1.758 -33.809,-4.89 -80.836,61.933 -128.961,158.699 -128.961,260.695 0,180.961 147.16,328.187 328.031,328.187 180.879,0 328.027,-147.226 328.027,-328.187 0,-180.981 -147.148,-328.207 -328.027,-328.207 z M 542.852,321.449 c -56.817,0 -103.032,46.391 -103.032,103.399 0,17.832 4.512,34.609 12.45,49.257 5.273,-4.785 10.906,-9.753 16.75,-14.773 -5.02,-10.598 -7.911,-22.375 -7.911,-34.836 0,-30.957 15.606,-56.527 45.118,-73.926 17.117,-10.109 36.546,-19.199 57.132,-27.09 -6.699,-1.351 -13.554,-2.031 -20.507,-2.031 z M 1201.29,796.641 C 1203.5,1068.11 984.055,1290.75 712.117,1292.95 585.051,1293.98 463.988,1246.84 371.234,1160.22 271.563,1067.13 216.055,940.836 214.949,804.621 213.629,642.203 292.418,490.16 425.766,397.02 c 12.656,-52.758 60.285,-92.129 117.086,-92.129 16.25,0 31.992,3.168 46.843,9.398 15.813,-5.008 32.024,-9.25 48.196,-12.629 -5.246,-14.461 -12.696,-28.07 -19.953,-40.398 l 11.808,-11.801 c 2.82,1.867 6.133,2.789 9.465,2.809 9.031,0 17.676,-6.18 17.605,-17.321 0,-9.07 -6.113,-17.558 -18.808,-17.539 -6.887,0 -15.801,3.629 -20.606,13.942 0,0 -3.203,-10.043 -3.203,-22.133 0,-36.598 39.785,-76.891 93.02,-93.77 53.535,16.742 93.164,57.172 93.164,93.77 0,12.09 -3.203,22.133 -3.203,22.133 -4.809,-10.313 -13.735,-13.942 -20.617,-13.942 -12.684,-0.019 -18.797,8.469 -18.797,17.539 -0.071,11.141 8.574,17.321 17.593,17.321 3.325,-0.02 6.645,-0.942 9.477,-2.809 l 10.84,10.777 0.269,0.16 0.45,0.563 c 0.058,-0.039 0.121,-0.039 0.16,-0.082 l 0.015,0.301 0.063,0.082 -0.039,0.09 v 0.019 c -5.332,12.758 -9.223,24.399 -11.953,35.488 88.297,12.102 162.832,49.59 222.169,111.95 l -0.1,0.121 c 122.44,93.086 193.32,233.918 194.58,387.711" /><path
         id="path158"
         style="fill:#ffffff;fill-opacity:1;fill-rule:nonzero;stroke:none"
         d="m 445.273,1067.83 c 0,-7.05 -3.078,-14.49 -9.238,-21.22 -11.824,-12.93 -24.437,-14.11 -25.742,-14.08 l -3.578,13.64 c 1.976,0.53 11.246,2.42 17.816,9.62 2.973,3.25 4.512,6.72 4.512,9.77 0,3.25 -2.145,8.89 -8.84,8.89 -7.152,0 -19.105,-10.36 -31.371,-10.36 -4.707,0 -9.937,0.66 -15.391,5.66 -5.257,4.81 -7.699,10.95 -7.699,17.2 0,6.82 3.113,13.99 8.903,20.32 10.992,12.01 23.085,12.98 24.132,13.03 l 2.953,-13.39 c -1.386,-0.25 -10.382,-2.22 -15.96,-8.32 -2.864,-3.13 -4.387,-6.54 -4.387,-9.52 0,-3.25 2.058,-7.21 7.406,-7.29 5.879,-0.07 20.68,10.75 32.715,10.75 5.574,0 9.641,-0.99 15.281,-6.16 5.66,-5.17 8.488,-11.68 8.488,-18.54" /><path
         id="path160"
         style="fill:#ffffff;fill-opacity:1;fill-rule:nonzero;stroke:none"
         d="m 848.27,1197.99 c 0,5.69 -1.29,11.63 -4.735,16.24 -3.562,4.79 -9.426,8.15 -16.379,8.15 -14.746,0 -25.547,-18.3 -25.547,-33.41 0,-14.02 9.477,-23.55 22.192,-23.55 16.679,0 24.469,21.67 24.469,32.57 z m -23.907,-47.42 c -20.996,0 -40.039,15.99 -40.039,40.03 0,21.47 14.387,46.38 40.531,46.38 21.266,0 40.958,-15.03 40.958,-39.21 0,-18.2 -12.29,-47.2 -41.45,-47.2" /><path
         id="path162"
         style="fill:#ffffff;fill-opacity:1;fill-rule:nonzero;stroke:none"
         d="m 1049.72,991.441 c 14.45,0 34.49,12.509 34.49,29.329 0,11.59 -9,20.64 -20.55,20.64 -13.51,0 -34.13,-12.02 -34.13,-29 0,-9.05 6.92,-20.969 20.19,-20.969 z m 2.93,-16.687 c -25.05,0 -38.85,24.129 -38.85,40.316 0,24.55 26.41,43.31 47.06,43.31 22.5,0 39.01,-21.4 39.01,-40.79 0,-22.043 -23.02,-42.836 -47.22,-42.836" /><path
         id="path164"
         style="fill:#ffffff;fill-opacity:1;fill-rule:nonzero;stroke:none"
         d="m 1115.52,709.547 c 14.59,0 25.28,8.926 25.28,22.027 0,15.641 -18.11,23.602 -32.09,23.602 -17.9,0 -25.17,-11.641 -25.17,-22.582 0,-17.125 21,-23.047 31.98,-23.047 z m -46.68,22.789 c 0,20.32 13.76,40.293 41.11,40.293 23,0 45.24,-14.18 45.24,-39.645 0,-20.914 -13.4,-41.015 -40.57,-41.015 -23.24,0 -45.78,14.676 -45.78,40.367" /><path
         id="path166"
         style="fill:#ffffff;fill-opacity:1;fill-rule:nonzero;stroke:none"
         d="m 1085.26,626.156 c 0,-6.289 5.29,-11.289 11.17,-11.289 5.26,0 8.54,2.891 11.63,9.727 l 2.58,6.152 -20.34,9.555 -3.39,-7.59 c -1.12,-2.492 -1.65,-4.68 -1.65,-6.555 z m -47.72,9.16 24.47,-0.097 c 11.6,-0.098 12.49,2.746 15.25,8.808 l 0.81,1.797 -29.45,13.672 7.06,15.617 74.5,-34.386 -9.55,-21.434 c -6.54,-14.426 -12.12,-21.699 -25.78,-21.699 -8.77,0 -21.64,7.293 -21.54,20.703 0.02,2.058 0.3,4.266 0.97,6.621 -4.39,-7.609 -15.41,-6.555 -22.32,-6.555 l -22.04,0.102 7.62,16.851" /><path
         id="path168"
         style="fill:#ffffff;fill-opacity:1;fill-rule:nonzero;stroke:none"
         d="m 1031.29,520.18 c 8.69,0 13.72,2.609 23.7,14.875 l 3.13,3.828 -42.41,34.5 -5.21,-6.406 c -5.1,-6.289 -7.76,-12.461 -7.76,-18.418 0,-7.911 3.92,-14.883 11.94,-21.426 5.78,-4.688 11.09,-6.953 16.61,-6.953 z m -43.841,24.14 c 0,16.836 7.805,25.996 17.681,38.164 l 10.68,13.098 63.83,-51.945 -14.34,-17.598 c -8.08,-9.941 -17.61,-22.176 -35.93,-22.176 -10.42,0 -19.58,4.832 -26.06,10.106 -8.107,6.594 -15.861,17.773 -15.861,30.351" /></g></g></svg>